<svg t="1714625386986" class="icon" viewBox="0 0 1024 1024" version="1.1" xmlns="http://www.w3.org/2000/svg" p-id="47191" width="16" height="16"><path d="M710.056685 63.889056H43.482294C20.056103 63.889056 0.88959 83.055569 0.88959 106.48176v873.148394c0 23.426191 19.166513 42.592704 42.592704 42.592704h666.574391c23.426191 0 42.592704-19.166513 42.592704-42.592704V106.48176c0-23.426191-19.166513-42.592704-42.592704-42.592704z" fill="#FFD15C" p-id="47192"></path><path d="M57.32319 120.707862h636.758683v843.334724H57.32319z" fill="#FFFFFF" p-id="47193"></path><path d="M520.519356 0H233.019623c-25.55603 0-46.852382 21.296352-46.852382 44.722543v117.128917h379.074658V44.722543C567.371738 21.296352 546.075386 0 520.519356 0z" fill="#FF7058" p-id="47194"></path><path d="M279.869967 259.815902h370.555302v48.982221H279.869967zM279.869967 432.314519h370.555302v48.982221H279.869967zM279.869967 604.815174h370.555302v48.982221H279.869967zM279.869967 777.315829h370.555302v48.982221H279.869967z" fill="#4CDBC4" p-id="47195"></path><path d="M100.981833 743.240443h117.128917v117.128917H100.981833zM100.981833 570.741826h117.128917v117.128917H100.981833zM100.981833 398.241171h117.128917v117.128917H100.981833zM100.981833 225.740516h117.128917v117.128917H100.981833z" fill="#CDD6E0" p-id="47196"></path><path d="M143.574537 321.575119L115.888668 291.759411l14.906835-14.906835 12.779034 12.776996 42.592704-40.462865 14.906835 14.906835zM145.704376 491.943897l-27.685869-27.683831 14.906835-14.908873 12.779034 12.779034 42.592704-40.462865 14.906835 14.906835z" fill="#40596B" p-id="47197"></path><path d="M865.518628 843.334724h-74.536213l117.128917 166.111138c10.647157 12.776996 27.685869 17.036674 42.592704 6.389517 12.776996-10.647157 17.036674-27.685869 8.519356-42.592704l-93.704764-129.907951zM699.40749 843.334724l-91.574925 132.03779c-10.647157 12.776996-6.389517 31.943509 8.519356 42.592704 12.776996 10.647157 31.943509 6.389517 42.592704-6.389517l117.128917-166.111138h-76.666052v-2.129839z" fill="#334A5E" p-id="47198"></path><path d="M541.815708 768.796473a240.647351 238.51955 0 1 0 481.294702 0 240.647351 238.51955 0 1 0-481.294702 0Z" fill="#40596B" p-id="47199"></path><path d="M782.463059 960.463641c-106.48176 0-191.667168-85.185408-191.667168-191.667168s87.315247-191.667168 191.667168-191.667168c106.48176 0 191.667168 85.185408 191.667168 191.667168 0 104.351921-85.185408 191.667168-191.667168 191.667168z" fill="#F2F2F2" p-id="47200"></path><path d="M765.426385 609.074852a17.036674 17.036674 0 1 0 34.073348 0 17.036674 17.036674 0 1 0-34.073348 0Z" fill="#FF7058" p-id="47201"></path><path d="M765.426385 926.390293a17.036674 17.036674 0 1 0 34.073348 0 17.036674 17.036674 0 1 0-34.073348 0Z" fill="#FF7058" p-id="47202"></path><path d="M925.150044 768.796473a17.036674 17.036674 0 1 0 34.073348 0 17.036674 17.036674 0 1 0-34.073348 0Z" fill="#FF7058" p-id="47203"></path><path d="M605.704764 768.796473a17.036674 17.036674 0 1 0 34.073348 0 17.036674 17.036674 0 1 0-34.073348 0Z" fill="#FF7058" p-id="47204"></path><path d="M776.07558 768.796473c0-6.389517 6.389517-12.776996 12.776996-12.776996h72.408412c6.389517 0 12.776996 6.389517 12.776996 12.776996 0 6.389517-6.389517 12.776996-12.776996 12.776996h-72.408412c-6.389517-2.127801-12.776996-6.387479-12.776996-12.776996z" fill="#FFD15C" p-id="47205"></path><path d="M782.463059 638.888522c6.389517 0 12.776996 6.389517 12.776996 12.776996v114.999078c0 6.389517-6.389517 12.776996-12.776996 12.776996-6.389517 0-12.776996-6.389517-12.776996-12.776996v-114.999078c0-6.387479 6.389517-12.776996 12.776996-12.776996z" fill="#FFD15C" p-id="47206"></path><path d="M752.647351 768.796473a29.815708 29.815708 0 1 0 59.631416 0 29.815708 29.815708 0 1 0-59.631416 0Z" fill="#FF7058" p-id="47207"></path><path d="M707.926846 479.166901l217.223198-215.093359-97.962404-97.962404-217.223198 215.093359c-2.129839 2.129839-2.129839 4.259678-4.259678 4.259678 0 2.129839-2.129839 4.259678-2.129839 4.259678l-2.129839 4.259678-19.166513 72.408412-12.776996 51.11206 51.11206-12.776996 74.536213-19.166513 4.259678-2.129839c2.129839 0 4.259678-2.129839 4.259678-2.129839s2.127801-2.133915 4.25764-2.133915z" fill="#FFD15C" p-id="47208"></path><path d="M627.001116 421.667362L854.871471 193.797007l-29.815708-29.815708-215.093359 217.223198c-2.129839 2.129839-2.129839 4.259678-4.259678 4.259678 0 2.129839-2.129839 4.259678-2.129839 4.259678l-2.129839 4.259678 25.558068 27.683831zM707.926846 479.166901l217.223198-215.093359-29.815708-29.815708-227.870355 225.742554 25.55603 25.55603 4.259678-2.129839c2.129839 0 4.259678-2.129839 4.259678-2.129839 2.127801 0 4.25764-2.129839 6.387479-2.129839z" fill="#FF7058" p-id="47209"></path><path d="M618.48176 504.722931l-36.203187-36.203187-14.906835 51.110022z" fill="#334A5E" p-id="47210"></path><path d="M1008.203575 117.128917l-38.333026-38.333026c-17.036674-17.036674-44.722543-17.036674-59.629378 0L854.871471 134.167629l97.962404 97.962404 55.3697-55.3697c17.038712-14.908873 17.038712-42.592704 0-59.631416z" fill="#40596B" p-id="47211"></path><path d="M627.001116 421.667362L854.871471 193.797007l40.462865 40.462865-227.870355 225.740516z" fill="#F1543F" p-id="47212"></path><path d="M854.871471 136.29543l97.962404 97.964442-29.815708 29.81367-97.962404-97.962404z" fill="#FFD15C" p-id="47213"></path></svg>