<?xml version="1.0" standalone="no"?><!DOCTYPE svg PUBLIC "-//W3C//DTD SVG 1.1//EN" "http://www.w3.org/Graphics/SVG/1.1/DTD/svg11.dtd"><svg t="1732900837650" class="icon" viewBox="0 0 1024 1024" version="1.1" xmlns="http://www.w3.org/2000/svg" p-id="10547" xmlns:xlink="http://www.w3.org/1999/xlink" width="64" height="64"><path d="M425.66 411.07m-15.5 0a15.5 15.5 0 1 0 31 0 15.5 15.5 0 1 0-31 0Z" fill="#A5D400" p-id="10548"></path><path d="M778.16 1022.57h-535a100 100 0 0 1-100-100v-595a40 40 0 0 1 40-40h655a40 40 0 0 1 40 40v595a100 100 0 0 1-100 100z m-555-655v555a20 20 0 0 0 20 20h535a20 20 0 0 0 20-20v-555z" fill="#A4D400" p-id="10549"></path><path d="M251.16 588.29V411.07a15.5 15.5 0 0 1 15.5-15.5h108.92a4 4 0 0 1 2.79 1.14c13.29 13 4.27 28.86-8.44 28.86H289a7.82 7.82 0 0 0-7.82 7.82v149.25c0 12.72-15.83 21.74-28.86 8.44a4 4 0 0 1-1.16-2.79z" fill="#A5D400" p-id="10550"></path><path d="M906.47 168.57h-293a114.15 114.15 0 0 0 11.37-55C622.24 54.21 574.07 6.27 514.73 4A114.68 114.68 0 0 0 407 168.57H114c-20.7 0-39.4 16.85-40.65 37.52a40 40 0 0 0 39.93 42.48h794a40 40 0 0 0 39.93-42.48c-1.34-20.67-20.04-37.52-40.74-37.52z m-396.26-85a34.7 34.7 0 1 1-34.7 34.7 34.74 34.74 0 0 1 34.69-34.7z" fill="#FF8429" p-id="10551"></path><path d="M300.16 812.75V640.13c0-20.7 16.86-39.41 37.52-40.65a40 40 0 0 1 42.48 39.93v174.06a40 40 0 0 1-42.48 39.93c-20.68-1.25-37.52-19.95-37.52-40.65zM470.16 812.75v-244c0-20.7 16.86-39.41 37.52-40.65a40 40 0 0 1 42.48 39.9v245.47a40 40 0 0 1-42.48 39.93c-20.68-1.25-37.52-19.95-37.52-40.65zM640.16 812.75v-315.4c0-20.7 16.86-39.41 37.52-40.65a40 40 0 0 1 42.48 39.93v316.84a40 40 0 0 1-42.48 39.93c-20.68-1.25-37.52-19.95-37.52-40.65z" fill="#A5D400" p-id="10552"></path></svg>