<?xml version="1.0" standalone="no"?><!DOCTYPE svg PUBLIC "-//W3C//DTD SVG 1.1//EN" "http://www.w3.org/Graphics/SVG/1.1/DTD/svg11.dtd"><svg t="1732900394297" class="icon" viewBox="0 0 1024 1024" version="1.1" xmlns="http://www.w3.org/2000/svg" p-id="8458" xmlns:xlink="http://www.w3.org/1999/xlink" width="64" height="64"><path d="M1022.08 479.296l-0.256-5.888v-0.064a154.368 154.368 0 0 0-154.112-146.432H500.16a154.368 154.368 0 0 0-154.24 146.432v0.064c0 1.28 0 2.56-0.128 3.84v371.712a153.344 153.344 0 0 0 2.56 28.16l0.512 2.56a174.976 174.976 0 0 0 1.728 7.616 135.04 135.04 0 0 0 6.784 20.416 154.368 154.368 0 0 0 142.72 95.616h367.616c73.792 0 135.552-51.84 150.72-121.152l0.576-2.56a137.984 137.984 0 0 0 2.56-18.88c0.32-3.84 0.512-7.808 0.512-11.776V481.28 479.36z" fill="#036EFF" p-id="8459"></path><path d="M486.4 267.52h189.824V176A154.304 154.304 0 0 0 521.92 21.76H154.24A154.432 154.432 0 0 0 0 176v367.552a154.496 154.496 0 0 0 154.24 154.368h133.312v-231.68A198.848 198.848 0 0 1 486.336 267.52zM68.48 550.592l-0.64-4.992a56 56 0 0 0 1.024 6.4l-0.384-1.408z" fill="#A0C2F9" p-id="8460"></path></svg>