<?xml version="1.0" standalone="no"?><!DOCTYPE svg PUBLIC "-//W3C//DTD SVG 1.1//EN" "http://www.w3.org/Graphics/SVG/1.1/DTD/svg11.dtd"><svg t="1731691103025" class="icon" viewBox="0 0 1024 1024" version="1.1" xmlns="http://www.w3.org/2000/svg" p-id="16056" xmlns:xlink="http://www.w3.org/1999/xlink" width="64" height="64"><path d="M138.12499971 532.99999971L283.24999971 634.625c11.25 8.25000029 26.62499971 6.00000029 35.25000029-4.87500029 3.375-4.12499971 4.87500029-9.37500029 4.87500029-14.99999942l0-205.50000058c0-19.87499971-22.5-32.24999971-40.12500058-19.87499971l-145.49999941 101.62500029c-12.375 12.375-12.375 32.24999971 0.37499941 41.99999942zM158.37499971 774.50000029l690.00000029 0c16.4999997 0 29.99999971 13.50000001 29.99999971 29.99999971s-13.50000001 29.99999971-29.99999971 29.99999971l-690.00000029 0c-16.4999997 0-29.99999971-13.50000001-29.99999971-29.99999971s13.12499971-29.99999971 29.99999971-29.99999971zM158.37499971 189.50000029l690.00000029 0c16.4999997 0 29.99999971 13.50000001 29.99999971 29.99999971s-13.50000001 29.99999971-29.99999971 29.99999971l-690.00000029 0c-16.4999997 0-29.99999971-13.50000001-29.99999971-29.99999971s13.12499971-29.99999971 29.99999971-29.99999971zM413.37500029 579.5l434.99999971 0c16.4999997 0 29.99999971 13.50000001 29.99999971 29.99999971s-13.50000001 29.99999971-29.99999971 30.00000058l-434.99999971 1e-8c-16.4999997 0-29.99999971-13.50000001-30.00000058-30.00000058s13.12499971-29.99999971 30.00000058-29.99999972zM413 384.49999971L848.375 384.49999971c16.4999997 0 29.99999971 13.50000001 29.99999971 30.00000058s-13.50000001 29.99999971-29.99999971 29.99999971l-435.375 0c-16.4999997 0-29.99999971-13.50000001-29.99999971-29.99999971l0-0.37500029c0.37500029-16.12500029 13.5-29.62500029 29.99999971-29.62500029z" fill="#333333" p-id="16057"></path></svg>