<?xml version="1.0" standalone="no"?><!DOCTYPE svg PUBLIC "-//W3C//DTD SVG 1.1//EN" "http://www.w3.org/Graphics/SVG/1.1/DTD/svg11.dtd"><svg t="1732900526185" class="icon" viewBox="0 0 1024 1024" version="1.1" xmlns="http://www.w3.org/2000/svg" p-id="9977" xmlns:xlink="http://www.w3.org/1999/xlink" width="64" height="64"><path d="M558.053773 398.871003A44.515611 44.515611 0 0 0 618.372426 381.732493l176.281819-315.393104a44.515611 44.515611 0 1 0-77.902319-43.458365l-175.836663 315.393104a44.515611 44.515611 0 0 0 17.13851 60.596875z" fill="#0D6EFF" p-id="9978"></path><path d="M717.141438 701.243291a161.36909 161.36909 0 0 0-29.714171 2.782225L306.763149 22.936669a44.515611 44.515611 0 1 0-77.902319 43.458365l232.093266 414.941139-124.476777 222.578054a161.36909 161.36909 0 1 0 79.627299 40.008406l95.875498-171.496391 95.819852 171.60768a161.36909 161.36909 0 1 0 109.34147-42.790631zM306.763149 934.950248a72.337868 72.337868 0 1 1 72.337868-72.337867 72.337868 72.337868 0 0 1-72.337868 72.337867z m205.884701-418.502387A31.995595 31.995595 0 1 1 544.420867 484.229687 31.995595 31.995595 0 0 1 512.64785 516.447861zM717.141438 934.950248a72.337868 72.337868 0 1 1 72.337867-72.337867 72.337868 72.337868 0 0 1-72.337867 72.337867z" fill="#333333" p-id="9979"></path></svg>