<?xml version="1.0" standalone="no"?><!DOCTYPE svg PUBLIC "-//W3C//DTD SVG 1.1//EN" "http://www.w3.org/Graphics/SVG/1.1/DTD/svg11.dtd"><svg t="1724674316326" class="icon" viewBox="0 0 1024 1024" version="1.1" xmlns="http://www.w3.org/2000/svg" p-id="4252" xmlns:xlink="http://www.w3.org/1999/xlink" width="64" height="64"><path d="M13.524271 512.036685a498.504637 498.504637 0 1 1 498.437016 498.437015A498.437016 498.437016 0 0 1 13.524271 512.036685z" fill="#FFF100" p-id="4253"></path><path d="M40.572814 593.182312a556.253275 556.253275 0 0 1 636.114096-550.099732A498.437016 498.437016 0 0 0 56.260968 723.623908 555.441819 555.441819 0 0 1 40.572814 593.182312z" fill="#FFFFFF" p-id="4254"></path><path d="M978.88675 430.891057a555.847547 555.847547 0 0 1-555.847546 555.847547 568.763226 568.763226 0 0 1-80.131307-5.680194 498.572258 498.572258 0 0 0 620.425942-680.541327 556.253275 556.253275 0 0 1 15.552911 130.373974z" fill="#F8B62D" p-id="4255"></path><path d="M511.961287 1023.997971a511.961287 511.961287 0 1 1 459.28425-738.425208A13.524271 13.524271 0 0 1 946.698985 297.609365a484.912744 484.912744 0 1 0 36.718396 327.354984 13.524271 13.524271 0 1 1 26.304708 6.288786 510.000267 510.000267 0 0 1-497.760802 392.744836z" fill="#231815" p-id="4256"></path><path d="M1010.398302 525.560956a13.524271 13.524271 0 0 1-13.524271-13.524271A486.400414 486.400414 0 0 0 989.300439 426.089941a13.524271 13.524271 0 0 1 26.642815-4.733495 514.328034 514.328034 0 0 1 7.97932 90.680239 13.524271 13.524271 0 0 1-13.524272 13.524271z" fill="#231815" p-id="4257"></path><path d="M561.257255 815.99468V566.404255h249.590426a29.618154 29.618154 0 0 0 29.618154-29.618154v-39.423251a29.618154 29.618154 0 0 0-29.618154-29.618154H561.257255V218.08665a29.618154 29.618154 0 0 0-29.618154-29.618154H492.283472a29.618154 29.618154 0 0 0-29.618154 29.618154v249.658046H213.007272a29.618154 29.618154 0 0 0-29.618154 29.618154v39.423251a29.618154 29.618154 0 0 0 29.618154 29.618154h249.658046v249.590425A29.618154 29.618154 0 0 0 492.283472 845.342349h39.423251a29.618154 29.618154 0 0 0 29.550532-29.347669z" fill="#FFFFFF" p-id="4258"></path><path d="M531.706723 858.86662H492.283472a43.142425 43.142425 0 0 1-43.142425-43.142425V579.928526H213.007272a43.142425 43.142425 0 0 1-43.142426-43.142425v-39.423251a43.142425 43.142425 0 0 1 43.142426-43.142425h236.133775V218.08665a43.142425 43.142425 0 0 1 43.142425-43.142425h39.423251A43.142425 43.142425 0 0 1 574.781527 218.08665v236.133775h236.066154a43.142425 43.142425 0 0 1 43.142425 43.142425v39.423251a43.142425 43.142425 0 0 1-43.142425 43.142425H574.781527v236.066154a43.142425 43.142425 0 0 1-43.074804 42.87194zM213.007272 481.268968a16.093883 16.093883 0 0 0-16.093883 16.093882v39.423251a16.161504 16.161504 0 0 0 16.093883 16.093883h263.182317v263.114696A16.026261 16.026261 0 0 0 492.283472 831.818077h39.423251a16.093883 16.093883 0 0 0 16.026261-15.823397V552.879984h263.114697a16.093883 16.093883 0 0 0 16.093882-16.093883v-39.423251a16.026261 16.026261 0 0 0-16.093882-16.093882H547.732984V218.08665a16.161504 16.161504 0 0 0-16.093883-16.093883H492.283472a16.093883 16.093883 0 0 0-16.093883 16.093883v263.182318z" fill="#231815" p-id="4259"></path></svg>