<?xml version="1.0" standalone="no"?><!DOCTYPE svg PUBLIC "-//W3C//DTD SVG 1.1//EN" "http://www.w3.org/Graphics/SVG/1.1/DTD/svg11.dtd"><svg t="1731693496846" class="icon" viewBox="0 0 1024 1024" version="1.1" xmlns="http://www.w3.org/2000/svg" p-id="44095" xmlns:xlink="http://www.w3.org/1999/xlink" width="64" height="64"><path d="M952.746667 169.984l-85.162667 31.146667v639.530666l85.12 31.146667c37.888 13.994667 71.125333-22.826667 71.125333-83.072V253.056c0-60.245333-33.237333-97.066667-71.125333-83.072M327.253333 343.381333l-236.714666 30.592c-9.386667 1.066667-16.64-12.970667-16.64-31.146666 0-18.688 7.253333-34.773333 16.64-36.821334L327.210667 260.266667c13.994667-2.56 25.941333 14.037333 25.941333 37.376 0 23.338667-11.434667 44.117333-25.941333 45.653333M73.898667 509.013333c0-18.688 7.253333-33.749333 16.597333-34.261333l119.893333-3.626667c11.946667-0.554667 21.333333 16.597333 21.333334 37.888s-9.898667 38.4-21.333334 37.888l-119.893333-3.626666c-9.386667-0.512-16.64-15.573333-16.64-34.261334m172.885333 233.6l-156.245333-30.122666c-9.386667-1.578667-16.64-18.176-16.64-36.864s7.253333-32.682667 16.64-31.146667l156.245333 20.266667c12.458667 1.536 22.826667 20.736 22.826667 42.538666s-10.368 37.376-22.826667 35.328M393.642667 4.906667L50.005333 132.608C21.973333 142.976 0.170667 197.461333 0.170667 254.634667V763.306667c0 57.130667 21.802667 111.616 49.834666 122.496l343.637334 127.701333c53.973333 20.266667 100.693333-32.682667 100.693333-119.381333V124.288c0-86.656-46.72-139.093333-100.693333-119.381333m320.298666 165.12l-136.533333 50.346666v601.6l136.533333 50.346667c37.888 14.037333 71.082667-22.826667 71.082667-83.029333V253.013333c-0.512-60.245333-33.194667-97.066667-71.082667-83.072" fill="#FF7702" p-id="44096"></path></svg>